<?xml version="1.0" encoding="UTF-8"?>
<svg width="60" height="60" id="svg8" version="1.1" viewBox="0 0 24 24" xmlns="http://www.w3.org/2000/svg">
 <g id="g2099" transform="translate(80)">
  <path id="path1796" d="m-73.316 1.5547-3.9336 4.3105v16.58h13.912v-3.6836h4.5879v-9.9043h-4.5879v-7.3027zm0.8418 1h8.1367v6.3027h-9.5898v9.9043h9.5898v2.6836h-11.912v-14.654h3.7754zm-1 0.65625v2.5801h-2.3555zm0.54688 6.6465h1.8652c0.01162 0.08146 0.041 0.15958 0.04102 0.24219 0 0.96096-0.75939 1.7254-1.7031 1.7266-0.06901-2.1e-5 -0.13482-0.02476-0.20312-0.0332zm2.8789 0h7.4199c-0.04778 0.55132 0.05237 1.1151 0.33203 1.5957 0.47343 0.84774 1.4266 1.4045 2.4004 1.373 0.04984 2.25e-4 0.09722-0.0159 0.14648-0.01953v2.0059c-0.04926-0.0036-0.09665-0.01976-0.14648-0.01953-0.97383-0.03141-1.927 0.5253-2.4004 1.373-0.27966 0.48063-0.37981 1.0444-0.33203 1.5957h-7.4199c0.04778-0.55132-0.05237-1.1151-0.33203-1.5957-0.47343-0.84774-1.4266-1.4045-2.4004-1.373-0.04984-2.25e-4 -0.09722 0.01589-0.14648 0.01953v-2.0059c0.04926 0.0036 0.09665 0.01976 0.14648 0.01953 0.97383 0.03141 1.927-0.5253 2.4004-1.373 0.27966-0.48063 0.37981-1.0444 0.33203-1.5957zm8.4336 0h1.8652v1.9355c-0.0683 0.0084-0.13412 0.03318-0.20312 0.0332-0.94374-0.0011-1.7031-0.76561-1.7031-1.7266 2e-5 -0.08261 0.0294-0.16073 0.04102-0.24219zm-11.109 5.9355c0.94374 0.0011 1.7031 0.76561 1.7031 1.7266-2e-5 0.08261-0.0294 0.16073-0.04102 0.24219h-1.8652v-1.9355c0.0683-0.0084 0.13412-0.03318 0.20312-0.0332zm12.771 0c0.06901 2.1e-5 0.13482 0.02476 0.20312 0.0332v1.9355h-1.8652c-0.01162-0.08146-0.041-0.15958-0.04102-0.24219 0-0.96096 0.75939-1.7254 1.7031-1.7266z" style="color-rendering:auto;color:#000000;dominant-baseline:auto;font-feature-settings:normal;font-variant-alternates:normal;font-variant-caps:normal;font-variant-east-asian:normal;font-variant-ligatures:normal;font-variant-numeric:normal;font-variant-position:normal;font-variation-settings:normal;image-rendering:auto;inline-size:0;isolation:auto;mix-blend-mode:normal;paint-order:stroke fill markers;shape-margin:0;shape-padding:0;shape-rendering:auto;solid-color:#000000;stop-color:#000000;text-decoration-color:#000000;text-decoration-line:none;text-decoration-style:solid;text-indent:0;text-orientation:mixed;text-transform:none;white-space:normal"/>
  <path id="path1808" d="m-66.861 10.738v0.86328h-1.1875v2.6855h2.373v0.77344h-2.373v0.95508h1.1875v0.86523h1.0469v-0.86523h1.1875v-2.6836h-2.377v-0.77539h2.377v-0.95508h-1.1875v-0.86328z" style="color-rendering:auto;color:#000000;dominant-baseline:auto;font-feature-settings:normal;font-variant-alternates:normal;font-variant-caps:normal;font-variant-east-asian:normal;font-variant-ligatures:normal;font-variant-numeric:normal;font-variant-position:normal;font-variation-settings:normal;image-rendering:auto;inline-size:0;isolation:auto;mix-blend-mode:normal;shape-margin:0;shape-padding:0;shape-rendering:auto;solid-color:#000000;stop-color:#000000;text-decoration-color:#000000;text-decoration-line:none;text-decoration-style:solid;text-indent:0;text-orientation:mixed;text-transform:none;white-space:normal"/>
 </g>
</svg>
