<?xml version="1.0" standalone="no"?>
<!DOCTYPE svg PUBLIC "-//W3C//DTD SVG 20010904//EN"
 "http://www.w3.org/TR/2001/REC-SVG-20010904/DTD/svg10.dtd">
<svg version="1.0" xmlns="http://www.w3.org/2000/svg"
 width="191.000000pt" height="191.000000pt" viewBox="0 0 191.000000 191.000000"
 preserveAspectRatio="xMidYMid meet">
<metadata>
Created by potrace 1.16, written by Peter Selinger 2001-2019
</metadata>
<g transform="translate(0.000000,191.000000) scale(0.100000,-0.100000)"
fill="#000000" stroke="none">
<path d="M745 1884 c-79 -17 -200 -66 -282 -116 -120 -72 -252 -217 -320 -352
l-35 -69 18 -46 c47 -126 141 -285 234 -395 80 -94 87 -91 133 52 71 220 175
390 342 558 60 61 133 126 160 144 28 19 58 43 68 55 10 11 16 14 12 8 -4 -9
-1 -11 10 -7 9 4 14 13 10 22 -4 12 -3 13 10 2 11 -9 15 -9 15 -1 0 7 4 10 9
6 6 -3 15 4 21 15 6 11 16 20 23 20 8 0 7 -4 -3 -11 -12 -9 -12 -10 3 -5 10 3
21 6 23 6 3 0 0 8 -5 19 -6 10 -7 21 -3 25 3 4 -1 4 -9 1 -10 -4 -16 0 -16 9
0 9 9 18 19 22 10 3 18 8 18 12 0 11 -98 32 -115 26 -8 -4 -15 -1 -15 5 0 16
-240 13 -325 -5z m395 -18 c35 -14 20 -29 -15 -15 -11 4 -15 8 -10 8 6 1 3 6
-5 11 -21 14 -8 12 30 -4z m10 -42 c0 -2 -7 -4 -15 -4 -8 0 -15 4 -15 10 0 5
7 7 15 4 8 -4 15 -8 15 -10z m-10 -55 c0 -11 -4 -18 -10 -14 -5 3 -7 12 -3 20
7 21 13 19 13 -6z"/>
<path d="M116 1143 c-6 -14 -5 -15 5 -6 7 7 10 15 7 18 -3 3 -9 -2 -12 -12z"/>
<path d="M131 1121 c-8 -5 -21 -7 -29 -3 -9 3 -13 1 -9 -4 3 -5 -3 -27 -12
-48 l-18 -38 -7 32 c-8 44 -8 52 3 45 5 -3 12 -1 15 4 4 5 -2 8 -11 7 -46 -7
-64 -200 -34 -353 54 -275 226 -502 472 -624 l67 -32 56 22 c160 66 436 261
436 310 0 13 -32 28 -130 61 -193 64 -346 153 -505 293 -33 28 -64 51 -70 49
-5 -2 -7 0 -3 3 10 11 -42 76 -55 68 -5 -3 -8 -2 -5 3 8 12 -17 35 -28 26 -4
-4 -4 -2 -1 4 4 6 -2 19 -13 29 -11 10 -17 21 -15 26 3 4 1 10 -5 14 -5 3 -10
0 -10 -7 -1 -7 -7 2 -16 21 -17 40 -45 64 -58 50 -15 -14 -26 -11 -26 7 0 9 8
23 18 30 19 15 14 18 -7 5z"/>
<path d="M620 1050 c0 -6 40 -10 99 -10 62 0 102 -4 107 -11 7 -12 -64 -159
-77 -159 -5 0 -9 24 -9 53 0 66 -16 90 -55 85 -17 -1 -28 -7 -25 -13 3 -5 15
-9 28 -7 25 3 26 -1 12 -28 -8 -14 -6 -29 4 -53 14 -35 53 -70 67 -61 16 9 89
152 89 173 0 20 5 21 75 21 68 0 75 -2 75 -20 0 -16 -7 -20 -31 -20 -17 0 -39
-5 -50 -10 -21 -12 -26 -50 -7 -50 6 0 2 -9 -10 -20 -29 -28 -15 -55 36 -70
71 -19 132 -6 132 30 l0 21 -30 -21 c-34 -24 -93 -31 -112 -12 -17 17 8 42 43
42 16 0 29 5 29 10 0 6 -13 10 -29 10 -17 0 -33 5 -37 11 -11 19 16 34 61 34
l45 0 -6 33 -6 32 106 0 c94 0 106 -2 106 -17 0 -15 -8 -17 -49 -15 -39 3 -53
0 -70 -17 -27 -27 -26 -34 3 -67 23 -27 24 -28 76 -16 28 7 56 10 61 6 5 -3 9
-1 9 4 0 16 -52 29 -80 21 -43 -12 -70 -10 -70 6 0 22 46 37 100 33 44 -3 45
-2 48 30 2 17 7 32 13 32 5 0 9 5 9 10 0 6 -120 10 -340 10 -220 0 -340 -4
-340 -10z"/>
<path d="M1450 1032 c0 -11 -13 -58 -29 -106 -26 -76 -27 -88 -14 -101 8 -8
11 -15 6 -15 -5 0 -14 5 -20 11 -13 13 -49 -72 -39 -96 4 -11 2 -14 -6 -9 -8
5 -9 2 -5 -10 5 -13 3 -17 -6 -13 -13 5 -18 -7 -16 -35 0 -7 3 -51 6 -98 2
-47 9 -87 13 -90 13 -8 18 -338 5 -333 -6 2 -11 -5 -11 -16 0 -13 7 -18 22
-17 12 0 20 5 16 10 -3 5 1 7 10 4 8 -4 15 -1 15 7 0 8 -7 11 -16 8 -13 -5
-14 -4 -3 8 11 12 15 11 28 -5 13 -18 19 -15 14 9 -1 6 2 7 5 3 32 -32 243
169 318 302 57 101 57 104 -12 245 -58 117 -126 221 -196 298 -41 46 -52 53
-64 44 -12 -9 -13 -9 -7 1 4 6 2 12 -3 12 -6 0 -11 -8 -11 -18z m-50 -310 c0
-4 -11 -23 -25 -42 -13 -18 -22 -36 -20 -40 2 -4 -2 -7 -10 -7 -8 0 -16 6 -19
13 -5 14 19 44 35 44 5 0 9 9 9 20 0 11 7 20 15 20 8 0 15 -4 15 -8z m77 -536
c0 -8 -6 -12 -15 -9 -11 5 -11 7 0 14 7 5 13 9 14 9 0 0 1 -6 1 -14z"/>
<path d="M1340 665 c-7 -9 -8 -15 -2 -15 5 0 12 7 16 15 3 8 4 15 2 15 -2 0
-9 -7 -16 -15z"/>
<path d="M1122 873 c2 -10 19 -23 38 -29 19 -6 40 -21 48 -33 17 -24 65 -30
56 -6 -3 8 -15 17 -26 21 -18 5 -17 8 11 25 34 21 45 47 12 29 -25 -13 -88
-13 -96 0 -11 18 -47 12 -43 -7z"/>
<path d="M1180 461 c0 -6 4 -13 10 -16 6 -3 7 1 4 9 -7 18 -14 21 -14 7z"/>
</g>
</svg>
